<?xml version="1.0" encoding="UTF-8" standalone="no"?>
<!DOCTYPE svg PUBLIC "-//W3C//DTD SVG 1.0//EN"
 "http://www.w3.org/TR/2001/REC-SVG-20010904/DTD/svg10.dtd" [
 <!ATTLIST svg xmlns:xlink CDATA #FIXED "http://www.w3.org/1999/xlink">
]>
<!-- Generated by Graphviz version 2.14.1 (Thu Jan 31 17:20:39 UTC 2008)
     For user: (mariuslj) Marius J|hndal -->
<!-- Title: controllers_diagram Pages: 1 -->
<svg width="1172pt" height="1311pt"
 viewBox="0.00 0.00 1172.00 1311.00" xmlns="http://www.w3.org/2000/svg" xmlns:xlink="http://www.w3.org/1999/xlink">
<g id="graph0" class="graph" transform="scale(1 1) rotate(0) translate(4 1307)">
<title>controllers_diagram</title>
<polygon style="fill:white;stroke:white;" points="-4,4 -4,-1307 1168,-1307 1168,4 -4,4"/>
<!-- _diagram_info -->
<g id="node1" class="node"><title>_diagram_info</title>
<text text-anchor="start" x="969" y="-347" style="font-family:Times New Roman;font-size:11.00;">Diagram: Controllers</text>
<text text-anchor="start" x="969" y="-330" style="font-family:Times New Roman;font-size:11.00;">Date: Apr 02 2008 &#45; 13:21</text>
<text text-anchor="start" x="969" y="-313" style="font-family:Times New Roman;font-size:11.00;">Migration version: 44</text>
<text text-anchor="start" x="969" y="-296" style="font-family:Times New Roman;font-size:11.00;">Generated by RailRoad 0.4.0</text>
</g>
<!-- AlignmentsController -->
<g id="node2" class="node"><title>AlignmentsController</title>
<polyline style="fill:none;stroke:black;" points="31,-327 151,-327 "/>
<path style="fill:none;stroke:black;" d="M151,-327C157,-327 163,-333 163,-339"/>
<polyline style="fill:none;stroke:black;" points="163,-339 163,-464 "/>
<path style="fill:none;stroke:black;" d="M163,-464C163,-470 157,-476 151,-476"/>
<polyline style="fill:none;stroke:black;" points="151,-476 31,-476 "/>
<path style="fill:none;stroke:black;" d="M31,-476C25,-476 19,-470 19,-464"/>
<polyline style="fill:none;stroke:black;" points="19,-464 19,-339 "/>
<path style="fill:none;stroke:black;" d="M19,-339C19,-333 25,-327 31,-327"/>
<text text-anchor="middle" x="91" y="-458" style="font-family:Times New Roman;font-size:11.00;">AlignmentsController</text>
<polyline style="fill:none;stroke:black;" points="19,-451 163,-451 "/>
<text text-anchor="start" x="27" y="-433" style="font-family:Times New Roman;font-size:11.00;">edit</text>
<text text-anchor="start" x="27" y="-416" style="font-family:Times New Roman;font-size:11.00;">flag_bad_alignment</text>
<text text-anchor="start" x="27" y="-399" style="font-family:Times New Roman;font-size:11.00;">show</text>
<text text-anchor="start" x="27" y="-382" style="font-family:Times New Roman;font-size:11.00;">update</text>
<polyline style="fill:none;stroke:black;" points="19,-375 163,-375 "/>
<polyline style="fill:none;stroke:black;" points="19,-351 163,-351 "/>
</g>
<!-- LemmataController -->
<g id="node3" class="node"><title>LemmataController</title>
<polyline style="fill:none;stroke:black;" points="784,-585 892,-585 "/>
<path style="fill:none;stroke:black;" d="M892,-585C898,-585 904,-591 904,-597"/>
<polyline style="fill:none;stroke:black;" points="904,-597 904,-756 "/>
<path style="fill:none;stroke:black;" d="M904,-756C904,-762 898,-768 892,-768"/>
<polyline style="fill:none;stroke:black;" points="892,-768 784,-768 "/>
<path style="fill:none;stroke:black;" d="M784,-768C778,-768 772,-762 772,-756"/>
<polyline style="fill:none;stroke:black;" points="772,-756 772,-597 "/>
<path style="fill:none;stroke:black;" d="M772,-597C772,-591 778,-585 784,-585"/>
<text text-anchor="middle" x="838" y="-750" style="font-family:Times New Roman;font-size:11.00;">LemmataController</text>
<polyline style="fill:none;stroke:black;" points="772,-743 904,-743 "/>
<text text-anchor="start" x="780" y="-725" style="font-family:Times New Roman;font-size:11.00;">arguments</text>
<text text-anchor="start" x="780" y="-708" style="font-family:Times New Roman;font-size:11.00;">concordance</text>
<text text-anchor="start" x="780" y="-691" style="font-family:Times New Roman;font-size:11.00;">dependencies</text>
<text text-anchor="start" x="780" y="-674" style="font-family:Times New Roman;font-size:11.00;">index</text>
<text text-anchor="start" x="780" y="-657" style="font-family:Times New Roman;font-size:11.00;">morphology</text>
<text text-anchor="start" x="780" y="-640" style="font-family:Times New Roman;font-size:11.00;">show</text>
<polyline style="fill:none;stroke:black;" points="772,-633 904,-633 "/>
<polyline style="fill:none;stroke:black;" points="772,-609 904,-609 "/>
</g>
<!-- BrowseController -->
<g id="node4" class="node"><title>BrowseController</title>
<polyline style="fill:none;stroke:black;" points="370,-66 468,-66 "/>
<path style="fill:none;stroke:black;" d="M468,-66C474,-66 480,-72 480,-78"/>
<polyline style="fill:none;stroke:black;" points="480,-78 480,-152 "/>
<path style="fill:none;stroke:black;" d="M480,-152C480,-158 474,-164 468,-164"/>
<polyline style="fill:none;stroke:black;" points="468,-164 370,-164 "/>
<path style="fill:none;stroke:black;" d="M370,-164C364,-164 358,-158 358,-152"/>
<polyline style="fill:none;stroke:black;" points="358,-152 358,-78 "/>
<path style="fill:none;stroke:black;" d="M358,-78C358,-72 364,-66 370,-66"/>
<text text-anchor="middle" x="419" y="-146" style="font-family:Times New Roman;font-size:11.00;">BrowseController</text>
<polyline style="fill:none;stroke:black;" points="358,-139 480,-139 "/>
<text text-anchor="start" x="366" y="-121" style="font-family:Times New Roman;font-size:11.00;">view</text>
<polyline style="fill:none;stroke:black;" points="358,-114 480,-114 "/>
<polyline style="fill:none;stroke:black;" points="358,-90 480,-90 "/>
</g>
<!-- UsersController -->
<g id="node5" class="node"><title>UsersController</title>
<polyline style="fill:none;stroke:black;" points="396,-1084 487,-1084 "/>
<path style="fill:none;stroke:black;" d="M487,-1084C493,-1084 499,-1090 499,-1096"/>
<polyline style="fill:none;stroke:black;" points="499,-1096 499,-1289 "/>
<path style="fill:none;stroke:black;" d="M499,-1289C499,-1295 493,-1301 487,-1301"/>
<polyline style="fill:none;stroke:black;" points="487,-1301 396,-1301 "/>
<path style="fill:none;stroke:black;" d="M396,-1301C390,-1301 384,-1295 384,-1289"/>
<polyline style="fill:none;stroke:black;" points="384,-1289 384,-1096 "/>
<path style="fill:none;stroke:black;" d="M384,-1096C384,-1090 390,-1084 396,-1084"/>
<text text-anchor="middle" x="441" y="-1283" style="font-family:Times New Roman;font-size:11.00;">UsersController</text>
<polyline style="fill:none;stroke:black;" points="384,-1276 499,-1276 "/>
<text text-anchor="start" x="392" y="-1258" style="font-family:Times New Roman;font-size:11.00;">activate</text>
<text text-anchor="start" x="392" y="-1241" style="font-family:Times New Roman;font-size:11.00;">create</text>
<text text-anchor="start" x="392" y="-1224" style="font-family:Times New Roman;font-size:11.00;">edit</text>
<text text-anchor="start" x="392" y="-1207" style="font-family:Times New Roman;font-size:11.00;">filter_parameters</text>
<text text-anchor="start" x="392" y="-1190" style="font-family:Times New Roman;font-size:11.00;">index</text>
<text text-anchor="start" x="392" y="-1173" style="font-family:Times New Roman;font-size:11.00;">new</text>
<text text-anchor="start" x="392" y="-1156" style="font-family:Times New Roman;font-size:11.00;">show</text>
<text text-anchor="start" x="392" y="-1139" style="font-family:Times New Roman;font-size:11.00;">update</text>
<polyline style="fill:none;stroke:black;" points="384,-1132 499,-1132 "/>
<polyline style="fill:none;stroke:black;" points="384,-1108 499,-1108 "/>
</g>
<!-- SessionsController -->
<g id="node6" class="node"><title>SessionsController</title>
<polyline style="fill:none;stroke:black;" points="669,-849 773,-849 "/>
<path style="fill:none;stroke:black;" d="M773,-849C779,-849 785,-855 785,-861"/>
<polyline style="fill:none;stroke:black;" points="785,-861 785,-986 "/>
<path style="fill:none;stroke:black;" d="M785,-986C785,-992 779,-998 773,-998"/>
<polyline style="fill:none;stroke:black;" points="773,-998 669,-998 "/>
<path style="fill:none;stroke:black;" d="M669,-998C663,-998 657,-992 657,-986"/>
<polyline style="fill:none;stroke:black;" points="657,-986 657,-861 "/>
<path style="fill:none;stroke:black;" d="M657,-861C657,-855 663,-849 669,-849"/>
<text text-anchor="middle" x="721" y="-980" style="font-family:Times New Roman;font-size:11.00;">SessionsController</text>
<polyline style="fill:none;stroke:black;" points="657,-973 785,-973 "/>
<text text-anchor="start" x="665" y="-955" style="font-family:Times New Roman;font-size:11.00;">create</text>
<text text-anchor="start" x="665" y="-938" style="font-family:Times New Roman;font-size:11.00;">destroy</text>
<text text-anchor="start" x="665" y="-921" style="font-family:Times New Roman;font-size:11.00;">filter_parameters</text>
<text text-anchor="start" x="665" y="-904" style="font-family:Times New Roman;font-size:11.00;">new</text>
<polyline style="fill:none;stroke:black;" points="657,-897 785,-897 "/>
<polyline style="fill:none;stroke:black;" points="657,-873 785,-873 "/>
</g>
<!-- WizardController -->
<g id="node7" class="node"><title>WizardController</title>
<polyline style="fill:none;stroke:black;" points="338,-673 487,-673 "/>
<path style="fill:none;stroke:black;" d="M487,-673C493,-673 499,-679 499,-685"/>
<polyline style="fill:none;stroke:black;" points="499,-685 499,-1015 "/>
<path style="fill:none;stroke:black;" d="M499,-1015C499,-1021 493,-1027 487,-1027"/>
<polyline style="fill:none;stroke:black;" points="487,-1027 338,-1027 "/>
<path style="fill:none;stroke:black;" d="M338,-1027C332,-1027 326,-1021 326,-1015"/>
<polyline style="fill:none;stroke:black;" points="326,-1015 326,-685 "/>
<path style="fill:none;stroke:black;" d="M326,-685C326,-679 332,-673 338,-673"/>
<text text-anchor="middle" x="412" y="-1009" style="font-family:Times New Roman;font-size:11.00;">WizardController</text>
<polyline style="fill:none;stroke:black;" points="326,-1002 499,-1002 "/>
<text text-anchor="start" x="334" y="-984" style="font-family:Times New Roman;font-size:11.00;">index</text>
<text text-anchor="start" x="334" y="-967" style="font-family:Times New Roman;font-size:11.00;">modify_dependencies</text>
<text text-anchor="start" x="334" y="-950" style="font-family:Times New Roman;font-size:11.00;">modify_morphtags</text>
<text text-anchor="start" x="334" y="-933" style="font-family:Times New Roman;font-size:11.00;">modify_sentence_divisions</text>
<text text-anchor="start" x="334" y="-916" style="font-family:Times New Roman;font-size:11.00;">save_dependencies</text>
<text text-anchor="start" x="334" y="-899" style="font-family:Times New Roman;font-size:11.00;">save_morphtags</text>
<text text-anchor="start" x="334" y="-882" style="font-family:Times New Roman;font-size:11.00;">save_sentence_divisions</text>
<text text-anchor="start" x="334" y="-865" style="font-family:Times New Roman;font-size:11.00;">skip_dependencies</text>
<text text-anchor="start" x="334" y="-848" style="font-family:Times New Roman;font-size:11.00;">skip_morphtags</text>
<text text-anchor="start" x="334" y="-831" style="font-family:Times New Roman;font-size:11.00;">skip_sentence_divisions</text>
<text text-anchor="start" x="334" y="-814" style="font-family:Times New Roman;font-size:11.00;">verify_dependencies</text>
<text text-anchor="start" x="334" y="-797" style="font-family:Times New Roman;font-size:11.00;">verify_morphtags</text>
<text text-anchor="start" x="334" y="-780" style="font-family:Times New Roman;font-size:11.00;">verify_sentence_divisions</text>
<polyline style="fill:none;stroke:black;" points="326,-773 499,-773 "/>
<polyline style="fill:none;stroke:black;" points="326,-749 499,-749 "/>
<text text-anchor="start" x="334" y="-731" style="font-family:Times New Roman;font-size:11.00;">change_state</text>
<text text-anchor="start" x="334" y="-714" style="font-family:Times New Roman;font-size:11.00;">next_sentence</text>
<text text-anchor="start" x="334" y="-697" style="font-family:Times New Roman;font-size:11.00;">render_state</text>
<text text-anchor="start" x="334" y="-680" style="font-family:Times New Roman;font-size:11.00;">set_state</text>
</g>
<!-- HomeController -->
<g id="node8" class="node"><title>HomeController</title>
<polyline style="fill:none;stroke:black;" points="38,-0 146,-0 "/>
<path style="fill:none;stroke:black;" d="M146,-0C152,-0 158,-6 158,-12"/>
<polyline style="fill:none;stroke:black;" points="158,-12 158,-171 "/>
<path style="fill:none;stroke:black;" d="M158,-171C158,-177 152,-183 146,-183"/>
<polyline style="fill:none;stroke:black;" points="146,-183 38,-183 "/>
<path style="fill:none;stroke:black;" d="M38,-183C32,-183 26,-177 26,-171"/>
<polyline style="fill:none;stroke:black;" points="26,-171 26,-12 "/>
<path style="fill:none;stroke:black;" d="M26,-12C26,-6 32,-0 38,-0"/>
<text text-anchor="middle" x="92" y="-165" style="font-family:Times New Roman;font-size:11.00;">HomeController</text>
<polyline style="fill:none;stroke:black;" points="26,-158 158,-158 "/>
<text text-anchor="start" x="34" y="-140" style="font-family:Times New Roman;font-size:11.00;">help</text>
<text text-anchor="start" x="34" y="-123" style="font-family:Times New Roman;font-size:11.00;">history</text>
<text text-anchor="start" x="34" y="-106" style="font-family:Times New Roman;font-size:11.00;">merge_tokens</text>
<text text-anchor="start" x="34" y="-89" style="font-family:Times New Roman;font-size:11.00;">search</text>
<text text-anchor="start" x="34" y="-72" style="font-family:Times New Roman;font-size:11.00;">tagger</text>
<text text-anchor="start" x="34" y="-55" style="font-family:Times New Roman;font-size:11.00;">user_administration</text>
<polyline style="fill:none;stroke:black;" points="26,-48 158,-48 "/>
<polyline style="fill:none;stroke:black;" points="26,-24 158,-24 "/>
</g>
<!-- JobsController -->
<g id="node9" class="node"><title>JobsController</title>
<polyline style="fill:none;stroke:black;" points="1073,-450 1152,-450 "/>
<path style="fill:none;stroke:black;" d="M1152,-450C1158,-450 1164,-456 1164,-462"/>
<polyline style="fill:none;stroke:black;" points="1164,-462 1164,-553 "/>
<path style="fill:none;stroke:black;" d="M1164,-553C1164,-559 1158,-565 1152,-565"/>
<polyline style="fill:none;stroke:black;" points="1152,-565 1073,-565 "/>
<path style="fill:none;stroke:black;" d="M1073,-565C1067,-565 1061,-559 1061,-553"/>
<polyline style="fill:none;stroke:black;" points="1061,-553 1061,-462 "/>
<path style="fill:none;stroke:black;" d="M1061,-462C1061,-456 1067,-450 1073,-450"/>
<text text-anchor="middle" x="1112" y="-547" style="font-family:Times New Roman;font-size:11.00;">JobsController</text>
<polyline style="fill:none;stroke:black;" points="1061,-540 1164,-540 "/>
<text text-anchor="start" x="1069" y="-522" style="font-family:Times New Roman;font-size:11.00;">index</text>
<text text-anchor="start" x="1069" y="-505" style="font-family:Times New Roman;font-size:11.00;">show</text>
<polyline style="fill:none;stroke:black;" points="1061,-498 1164,-498 "/>
<polyline style="fill:none;stroke:black;" points="1061,-474 1164,-474 "/>
</g>
<!-- DependenciesController -->
<g id="node10" class="node"><title>DependenciesController</title>
<polyline style="fill:none;stroke:black;" points="297,-468 429,-468 "/>
<path style="fill:none;stroke:black;" d="M429,-468C435,-468 441,-474 441,-480"/>
<polyline style="fill:none;stroke:black;" points="441,-480 441,-588 "/>
<path style="fill:none;stroke:black;" d="M441,-588C441,-594 435,-600 429,-600"/>
<polyline style="fill:none;stroke:black;" points="429,-600 297,-600 "/>
<path style="fill:none;stroke:black;" d="M297,-600C291,-600 285,-594 285,-588"/>
<polyline style="fill:none;stroke:black;" points="285,-588 285,-480 "/>
<path style="fill:none;stroke:black;" d="M285,-480C285,-474 291,-468 297,-468"/>
<text text-anchor="middle" x="363" y="-582" style="font-family:Times New Roman;font-size:11.00;">DependenciesController</text>
<polyline style="fill:none;stroke:black;" points="285,-575 441,-575 "/>
<text text-anchor="start" x="293" y="-557" style="font-family:Times New Roman;font-size:11.00;">edit</text>
<text text-anchor="start" x="293" y="-540" style="font-family:Times New Roman;font-size:11.00;">show</text>
<text text-anchor="start" x="293" y="-523" style="font-family:Times New Roman;font-size:11.00;">update</text>
<polyline style="fill:none;stroke:black;" points="285,-516 441,-516 "/>
<polyline style="fill:none;stroke:black;" points="285,-492 441,-492 "/>
</g>
<!-- StatisticsController -->
<g id="node11" class="node"><title>StatisticsController</title>
<polyline style="fill:none;stroke:black;" points="674,-34 780,-34 "/>
<path style="fill:none;stroke:black;" d="M780,-34C786,-34 792,-40 792,-46"/>
<polyline style="fill:none;stroke:black;" points="792,-46 792,-120 "/>
<path style="fill:none;stroke:black;" d="M792,-120C792,-126 786,-132 780,-132"/>
<polyline style="fill:none;stroke:black;" points="780,-132 674,-132 "/>
<path style="fill:none;stroke:black;" d="M674,-132C668,-132 662,-126 662,-120"/>
<polyline style="fill:none;stroke:black;" points="662,-120 662,-46 "/>
<path style="fill:none;stroke:black;" d="M662,-46C662,-40 668,-34 674,-34"/>
<text text-anchor="middle" x="727" y="-114" style="font-family:Times New Roman;font-size:11.00;">StatisticsController</text>
<polyline style="fill:none;stroke:black;" points="662,-107 792,-107 "/>
<text text-anchor="start" x="670" y="-89" style="font-family:Times New Roman;font-size:11.00;">show</text>
<polyline style="fill:none;stroke:black;" points="662,-82 792,-82 "/>
<polyline style="fill:none;stroke:black;" points="662,-58 792,-58 "/>
</g>
<!-- MorphtagsController -->
<g id="node12" class="node"><title>MorphtagsController</title>
<polyline style="fill:none;stroke:black;" points="503,-320 621,-320 "/>
<path style="fill:none;stroke:black;" d="M621,-320C627,-320 633,-326 633,-332"/>
<polyline style="fill:none;stroke:black;" points="633,-332 633,-440 "/>
<path style="fill:none;stroke:black;" d="M633,-440C633,-446 627,-452 621,-452"/>
<polyline style="fill:none;stroke:black;" points="621,-452 503,-452 "/>
<path style="fill:none;stroke:black;" d="M503,-452C497,-452 491,-446 491,-440"/>
<polyline style="fill:none;stroke:black;" points="491,-440 491,-332 "/>
<path style="fill:none;stroke:black;" d="M491,-332C491,-326 497,-320 503,-320"/>
<text text-anchor="middle" x="562" y="-434" style="font-family:Times New Roman;font-size:11.00;">MorphtagsController</text>
<polyline style="fill:none;stroke:black;" points="491,-427 633,-427 "/>
<text text-anchor="start" x="499" y="-409" style="font-family:Times New Roman;font-size:11.00;">edit</text>
<text text-anchor="start" x="499" y="-392" style="font-family:Times New Roman;font-size:11.00;">show</text>
<text text-anchor="start" x="499" y="-375" style="font-family:Times New Roman;font-size:11.00;">update</text>
<polyline style="fill:none;stroke:black;" points="491,-368 633,-368 "/>
<polyline style="fill:none;stroke:black;" points="491,-344 633,-344 "/>
</g>
<!-- ChangesetsController -->
<g id="node13" class="node"><title>ChangesetsController</title>
<polyline style="fill:none;stroke:black;" points="20,-610 140,-610 "/>
<path style="fill:none;stroke:black;" d="M140,-610C146,-610 152,-616 152,-622"/>
<polyline style="fill:none;stroke:black;" points="152,-622 152,-713 "/>
<path style="fill:none;stroke:black;" d="M152,-713C152,-719 146,-725 140,-725"/>
<polyline style="fill:none;stroke:black;" points="140,-725 20,-725 "/>
<path style="fill:none;stroke:black;" d="M20,-725C14,-725 8,-719 8,-713"/>
<polyline style="fill:none;stroke:black;" points="8,-713 8,-622 "/>
<path style="fill:none;stroke:black;" d="M8,-622C8,-616 14,-610 20,-610"/>
<text text-anchor="middle" x="80" y="-707" style="font-family:Times New Roman;font-size:11.00;">ChangesetsController</text>
<polyline style="fill:none;stroke:black;" points="8,-700 152,-700 "/>
<text text-anchor="start" x="16" y="-682" style="font-family:Times New Roman;font-size:11.00;">index</text>
<text text-anchor="start" x="16" y="-665" style="font-family:Times New Roman;font-size:11.00;">show</text>
<polyline style="fill:none;stroke:black;" points="8,-658 152,-658 "/>
<polyline style="fill:none;stroke:black;" points="8,-634 152,-634 "/>
</g>
<!-- BookmarksController -->
<g id="node14" class="node"><title>BookmarksController</title>
<polyline style="fill:none;stroke:black;" points="1029,-745 1151,-745 "/>
<path style="fill:none;stroke:black;" d="M1151,-745C1157,-745 1163,-751 1163,-757"/>
<polyline style="fill:none;stroke:black;" points="1163,-757 1163,-933 "/>
<path style="fill:none;stroke:black;" d="M1163,-933C1163,-939 1157,-945 1151,-945"/>
<polyline style="fill:none;stroke:black;" points="1151,-945 1029,-945 "/>
<path style="fill:none;stroke:black;" d="M1029,-945C1023,-945 1017,-939 1017,-933"/>
<polyline style="fill:none;stroke:black;" points="1017,-933 1017,-757 "/>
<path style="fill:none;stroke:black;" d="M1017,-757C1017,-751 1023,-745 1029,-745"/>
<text text-anchor="middle" x="1090" y="-927" style="font-family:Times New Roman;font-size:11.00;">BookmarksController</text>
<polyline style="fill:none;stroke:black;" points="1017,-920 1163,-920 "/>
<text text-anchor="start" x="1025" y="-902" style="font-family:Times New Roman;font-size:11.00;">create</text>
<text text-anchor="start" x="1025" y="-885" style="font-family:Times New Roman;font-size:11.00;">destroy</text>
<text text-anchor="start" x="1025" y="-868" style="font-family:Times New Roman;font-size:11.00;">edit</text>
<text text-anchor="start" x="1025" y="-851" style="font-family:Times New Roman;font-size:11.00;">index</text>
<text text-anchor="start" x="1025" y="-834" style="font-family:Times New Roman;font-size:11.00;">new</text>
<text text-anchor="start" x="1025" y="-817" style="font-family:Times New Roman;font-size:11.00;">show</text>
<text text-anchor="start" x="1025" y="-800" style="font-family:Times New Roman;font-size:11.00;">update</text>
<polyline style="fill:none;stroke:black;" points="1017,-793 1163,-793 "/>
<polyline style="fill:none;stroke:black;" points="1017,-769 1163,-769 "/>
</g>
<!-- TokensController -->
<g id="node15" class="node"><title>TokensController</title>
<polyline style="fill:none;stroke:black;" points="1029,-1139 1124,-1139 "/>
<path style="fill:none;stroke:black;" d="M1124,-1139C1130,-1139 1136,-1145 1136,-1151"/>
<polyline style="fill:none;stroke:black;" points="1136,-1151 1136,-1242 "/>
<path style="fill:none;stroke:black;" d="M1136,-1242C1136,-1248 1130,-1254 1124,-1254"/>
<polyline style="fill:none;stroke:black;" points="1124,-1254 1029,-1254 "/>
<path style="fill:none;stroke:black;" d="M1029,-1254C1023,-1254 1017,-1248 1017,-1242"/>
<polyline style="fill:none;stroke:black;" points="1017,-1242 1017,-1151 "/>
<path style="fill:none;stroke:black;" d="M1017,-1151C1017,-1145 1023,-1139 1029,-1139"/>
<text text-anchor="middle" x="1076" y="-1236" style="font-family:Times New Roman;font-size:11.00;">TokensController</text>
<polyline style="fill:none;stroke:black;" points="1017,-1229 1136,-1229 "/>
<text text-anchor="start" x="1025" y="-1211" style="font-family:Times New Roman;font-size:11.00;">index</text>
<text text-anchor="start" x="1025" y="-1194" style="font-family:Times New Roman;font-size:11.00;">show</text>
<polyline style="fill:none;stroke:black;" points="1017,-1187 1136,-1187 "/>
<polyline style="fill:none;stroke:black;" points="1017,-1163 1136,-1163 "/>
</g>
<!-- JavascriptsController -->
<g id="node16" class="node"><title>JavascriptsController</title>
<polyline style="fill:none;stroke:black;" points="672,-1168 799,-1168 "/>
<path style="fill:none;stroke:black;" d="M799,-1168C805,-1168 811,-1174 811,-1180"/>
<polyline style="fill:none;stroke:black;" points="811,-1180 811,-1288 "/>
<path style="fill:none;stroke:black;" d="M811,-1288C811,-1294 805,-1300 799,-1300"/>
<polyline style="fill:none;stroke:black;" points="799,-1300 672,-1300 "/>
<path style="fill:none;stroke:black;" d="M672,-1300C666,-1300 660,-1294 660,-1288"/>
<polyline style="fill:none;stroke:black;" points="660,-1288 660,-1180 "/>
<path style="fill:none;stroke:black;" d="M660,-1180C660,-1174 666,-1168 672,-1168"/>
<text text-anchor="middle" x="735" y="-1282" style="font-family:Times New Roman;font-size:11.00;">JavascriptsController</text>
<polyline style="fill:none;stroke:black;" points="660,-1275 811,-1275 "/>
<text text-anchor="start" x="668" y="-1257" style="font-family:Times New Roman;font-size:11.00;">dynamic_pos</text>
<text text-anchor="start" x="668" y="-1240" style="font-family:Times New Roman;font-size:11.00;">morphtag_presentation</text>
<text text-anchor="start" x="668" y="-1223" style="font-family:Times New Roman;font-size:11.00;">relations</text>
<polyline style="fill:none;stroke:black;" points="660,-1216 811,-1216 "/>
<polyline style="fill:none;stroke:black;" points="660,-1192 811,-1192 "/>
</g>
<!-- SourcesController -->
<g id="node17" class="node"><title>SourcesController</title>
<polyline style="fill:none;stroke:black;" points="771,-329 870,-329 "/>
<path style="fill:none;stroke:black;" d="M870,-329C876,-329 882,-335 882,-341"/>
<polyline style="fill:none;stroke:black;" points="882,-341 882,-466 "/>
<path style="fill:none;stroke:black;" d="M882,-466C882,-472 876,-478 870,-478"/>
<polyline style="fill:none;stroke:black;" points="870,-478 771,-478 "/>
<path style="fill:none;stroke:black;" d="M771,-478C765,-478 759,-472 759,-466"/>
<polyline style="fill:none;stroke:black;" points="759,-466 759,-341 "/>
<path style="fill:none;stroke:black;" d="M759,-341C759,-335 765,-329 771,-329"/>
<text text-anchor="middle" x="820" y="-460" style="font-family:Times New Roman;font-size:11.00;">SourcesController</text>
<polyline style="fill:none;stroke:black;" points="759,-453 882,-453 "/>
<text text-anchor="start" x="767" y="-435" style="font-family:Times New Roman;font-size:11.00;">edit</text>
<text text-anchor="start" x="767" y="-418" style="font-family:Times New Roman;font-size:11.00;">index</text>
<text text-anchor="start" x="767" y="-401" style="font-family:Times New Roman;font-size:11.00;">show</text>
<text text-anchor="start" x="767" y="-384" style="font-family:Times New Roman;font-size:11.00;">update</text>
<polyline style="fill:none;stroke:black;" points="759,-377 882,-377 "/>
<polyline style="fill:none;stroke:black;" points="759,-353 882,-353 "/>
</g>
<!-- SentencesController -->
<g id="node18" class="node"><title>SentencesController</title>
<polyline style="fill:none;stroke:black;" points="1026,-64 1135,-64 "/>
<path style="fill:none;stroke:black;" d="M1135,-64C1141,-64 1147,-70 1147,-76"/>
<polyline style="fill:none;stroke:black;" points="1147,-76 1147,-167 "/>
<path style="fill:none;stroke:black;" d="M1147,-167C1147,-173 1141,-179 1135,-179"/>
<polyline style="fill:none;stroke:black;" points="1135,-179 1026,-179 "/>
<path style="fill:none;stroke:black;" d="M1026,-179C1020,-179 1014,-173 1014,-167"/>
<polyline style="fill:none;stroke:black;" points="1014,-167 1014,-76 "/>
<path style="fill:none;stroke:black;" d="M1014,-76C1014,-70 1020,-64 1026,-64"/>
<text text-anchor="middle" x="1080" y="-161" style="font-family:Times New Roman;font-size:11.00;">SentencesController</text>
<polyline style="fill:none;stroke:black;" points="1014,-154 1147,-154 "/>
<text text-anchor="start" x="1022" y="-136" style="font-family:Times New Roman;font-size:11.00;">index</text>
<text text-anchor="start" x="1022" y="-119" style="font-family:Times New Roman;font-size:11.00;">show</text>
<polyline style="fill:none;stroke:black;" points="1014,-112 1147,-112 "/>
<polyline style="fill:none;stroke:black;" points="1014,-88 1147,-88 "/>
</g>
<!-- AnnotationsController -->
<g id="node19" class="node"><title>AnnotationsController</title>
<polyline style="fill:none;stroke:black;" points="40,-1153 165,-1153 "/>
<path style="fill:none;stroke:black;" d="M165,-1153C171,-1153 177,-1159 177,-1165"/>
<polyline style="fill:none;stroke:black;" points="177,-1165 177,-1290 "/>
<path style="fill:none;stroke:black;" d="M177,-1290C177,-1296 171,-1302 165,-1302"/>
<polyline style="fill:none;stroke:black;" points="165,-1302 40,-1302 "/>
<path style="fill:none;stroke:black;" d="M40,-1302C34,-1302 28,-1296 28,-1290"/>
<polyline style="fill:none;stroke:black;" points="28,-1290 28,-1165 "/>
<path style="fill:none;stroke:black;" d="M28,-1165C28,-1159 34,-1153 40,-1153"/>
<text text-anchor="middle" x="102" y="-1284" style="font-family:Times New Roman;font-size:11.00;">AnnotationsController</text>
<polyline style="fill:none;stroke:black;" points="28,-1277 177,-1277 "/>
<text text-anchor="start" x="36" y="-1259" style="font-family:Times New Roman;font-size:11.00;">flag_as_not_reviewed</text>
<text text-anchor="start" x="36" y="-1242" style="font-family:Times New Roman;font-size:11.00;">flag_as_reviewed</text>
<text text-anchor="start" x="36" y="-1225" style="font-family:Times New Roman;font-size:11.00;">index</text>
<text text-anchor="start" x="36" y="-1208" style="font-family:Times New Roman;font-size:11.00;">show</text>
<polyline style="fill:none;stroke:black;" points="28,-1201 177,-1201 "/>
<polyline style="fill:none;stroke:black;" points="28,-1177 177,-1177 "/>
</g>
<!-- SentenceDivisionsController -->
<g id="node20" class="node"><title>SentenceDivisionsController</title>
<polyline style="fill:none;stroke:black;" points="13,-846 173,-846 "/>
<path style="fill:none;stroke:black;" d="M173,-846C179,-846 185,-852 185,-858"/>
<polyline style="fill:none;stroke:black;" points="185,-858 185,-983 "/>
<path style="fill:none;stroke:black;" d="M185,-983C185,-989 179,-995 173,-995"/>
<polyline style="fill:none;stroke:black;" points="173,-995 13,-995 "/>
<path style="fill:none;stroke:black;" d="M13,-995C7,-995 1,-989 1,-983"/>
<polyline style="fill:none;stroke:black;" points="1,-983 1,-858 "/>
<path style="fill:none;stroke:black;" d="M1,-858C1,-852 7,-846 13,-846"/>
<text text-anchor="middle" x="93" y="-977" style="font-family:Times New Roman;font-size:11.00;">SentenceDivisionsController</text>
<polyline style="fill:none;stroke:black;" points="1,-970 185,-970 "/>
<text text-anchor="start" x="9" y="-952" style="font-family:Times New Roman;font-size:11.00;">edit</text>
<text text-anchor="start" x="9" y="-935" style="font-family:Times New Roman;font-size:11.00;">flag_bad_alignment</text>
<text text-anchor="start" x="9" y="-918" style="font-family:Times New Roman;font-size:11.00;">show</text>
<text text-anchor="start" x="9" y="-901" style="font-family:Times New Roman;font-size:11.00;">update</text>
<polyline style="fill:none;stroke:black;" points="1,-894 185,-894 "/>
<polyline style="fill:none;stroke:black;" points="1,-870 185,-870 "/>
</g>
<!-- ApplicationController -->
<g id="node21" class="node"><title>ApplicationController</title>
<polyline style="fill:none;stroke:black;" points="536,-608 657,-608 "/>
<path style="fill:none;stroke:black;" d="M657,-608C663,-608 669,-614 669,-620"/>
<polyline style="fill:none;stroke:black;" points="669,-620 669,-693 "/>
<path style="fill:none;stroke:black;" d="M669,-693C669,-699 663,-705 657,-705"/>
<polyline style="fill:none;stroke:black;" points="657,-705 536,-705 "/>
<path style="fill:none;stroke:black;" d="M536,-705C530,-705 524,-699 524,-693"/>
<polyline style="fill:none;stroke:black;" points="524,-693 524,-620 "/>
<path style="fill:none;stroke:black;" d="M524,-620C524,-614 530,-608 536,-608"/>
<text text-anchor="middle" x="596" y="-687" style="font-family:Times New Roman;font-size:11.00;">ApplicationController</text>
<polyline style="fill:none;stroke:black;" points="524,-680 669,-680 "/>
<polyline style="fill:none;stroke:black;" points="524,-656 669,-656 "/>
<polyline style="fill:none;stroke:black;" points="524,-632 669,-632 "/>
</g>
<!-- ApplicationController&#45;&gt;AlignmentsController -->
<g id="edge2" class="edge"><title>ApplicationController&#45;&gt;AlignmentsController</title>
<path style="fill:none;stroke:black;" d="M514,-658C447,-656 352,-644 279,-605 222,-575 173,-521 140,-476"/>
<polygon style="fill:none;stroke:black;" points="514,-661.5 524,-658 514,-654.5 514,-661.5"/>
</g>
<!-- ApplicationController&#45;&gt;LemmataController -->
<g id="edge4" class="edge"><title>ApplicationController&#45;&gt;LemmataController</title>
<path style="fill:none;stroke:black;" d="M679,-664C710,-667 743,-669 772,-672"/>
<polygon style="fill:none;stroke:black;" points="679.299,-660.512 669,-663 678.602,-667.478 679.299,-660.512"/>
</g>
<!-- ApplicationController&#45;&gt;BrowseController -->
<g id="edge6" class="edge"><title>ApplicationController&#45;&gt;BrowseController</title>
<path style="fill:none;stroke:black;" d="M558,-600C533,-561 504,-508 485,-457 448,-357 431,-232 424,-164"/>
<polygon style="fill:none;stroke:black;" points="554.732,-601.375 563,-608 560.668,-597.665 554.732,-601.375"/>
</g>
<!-- ApplicationController&#45;&gt;UsersController -->
<g id="edge8" class="edge"><title>ApplicationController&#45;&gt;UsersController</title>
<path style="fill:none;stroke:black;" d="M586,-715C571,-791 543,-928 506,-1041 501,-1055 496,-1070 490,-1084"/>
<polygon style="fill:none;stroke:black;" points="589.471,-715.492 588,-705 582.607,-714.119 589.471,-715.492"/>
</g>
<!-- ApplicationController&#45;&gt;SessionsController -->
<g id="edge10" class="edge"><title>ApplicationController&#45;&gt;SessionsController</title>
<path style="fill:none;stroke:black;" d="M622,-714C641,-754 666,-806 686,-849"/>
<polygon style="fill:none;stroke:black;" points="625.26,-712.717 618,-705 618.863,-715.56 625.26,-712.717"/>
</g>
<!-- ApplicationController&#45;&gt;WizardController -->
<g id="edge12" class="edge"><title>ApplicationController&#45;&gt;WizardController</title>
<path style="fill:none;stroke:black;" d="M543,-712C530,-727 514,-743 499,-759"/>
<polygon style="fill:none;stroke:black;" points="545.404,-714.546 550,-705 540.454,-709.596 545.404,-714.546"/>
</g>
<!-- ApplicationController&#45;&gt;HomeController -->
<g id="edge14" class="edge"><title>ApplicationController&#45;&gt;HomeController</title>
<path style="fill:none;stroke:black;" d="M555,-600C525,-560 485,-507 447,-463 351,-351 231,-229 158,-156"/>
<polygon style="fill:none;stroke:black;" points="552.2,-602.1 561,-608 557.8,-597.9 552.2,-602.1"/>
</g>
<!-- ApplicationController&#45;&gt;JobsController -->
<g id="edge16" class="edge"><title>ApplicationController&#45;&gt;JobsController</title>
<path style="fill:none;stroke:black;" d="M678,-614C706,-601 737,-588 767,-578 868,-544 993,-524 1061,-514"/>
<polygon style="fill:none;stroke:black;" points="676.042,-611.084 669,-619 679.441,-617.203 676.042,-611.084"/>
</g>
<!-- ApplicationController&#45;&gt;DependenciesController -->
<g id="edge18" class="edge"><title>ApplicationController&#45;&gt;DependenciesController</title>
<path style="fill:none;stroke:black;" d="M515,-614C491,-602 465,-588 441,-575"/>
<polygon style="fill:none;stroke:black;" points="513.559,-617.203 524,-619 516.958,-611.084 513.559,-617.203"/>
</g>
<!-- ApplicationController&#45;&gt;StatisticsController -->
<g id="edge20" class="edge"><title>ApplicationController&#45;&gt;StatisticsController</title>
<path style="fill:none;stroke:black;" d="M609,-598C635,-484 692,-237 716,-132"/>
<polygon style="fill:none;stroke:black;" points="605.529,-597.508 607,-608 612.393,-598.881 605.529,-597.508"/>
</g>
<!-- ApplicationController&#45;&gt;MorphtagsController -->
<g id="edge22" class="edge"><title>ApplicationController&#45;&gt;MorphtagsController</title>
<path style="fill:none;stroke:black;" d="M589,-598C583,-555 576,-496 570,-452"/>
<polygon style="fill:none;stroke:black;" points="585.522,-598.398 590,-608 592.488,-597.701 585.522,-598.398"/>
</g>
<!-- ApplicationController&#45;&gt;ChangesetsController -->
<g id="edge24" class="edge"><title>ApplicationController&#45;&gt;ChangesetsController</title>
<path style="fill:none;stroke:black;" d="M514,-657C459,-657 385,-657 319,-659 263,-660 200,-662 152,-665"/>
<polygon style="fill:none;stroke:black;" points="514,-660.5 524,-657 514,-653.5 514,-660.5"/>
</g>
<!-- ApplicationController&#45;&gt;BookmarksController -->
<g id="edge26" class="edge"><title>ApplicationController&#45;&gt;BookmarksController</title>
<path style="fill:none;stroke:black;" d="M661,-711C692,-735 729,-759 767,-775 849,-811 950,-829 1017,-838"/>
<polygon style="fill:none;stroke:black;" points="663.1,-708.2 653,-705 658.9,-713.8 663.1,-708.2"/>
</g>
<!-- ApplicationController&#45;&gt;TokensController -->
<g id="edge28" class="edge"><title>ApplicationController&#45;&gt;TokensController</title>
<path style="fill:none;stroke:black;" d="M658,-712C697,-748 748,-797 790,-843 882,-943 978,-1067 1033,-1139"/>
<polygon style="fill:none;stroke:black;" points="659.831,-708.951 650,-705 655.221,-714.219 659.831,-708.951"/>
</g>
<!-- ApplicationController&#45;&gt;JavascriptsController -->
<g id="edge30" class="edge"><title>ApplicationController&#45;&gt;JavascriptsController</title>
<path style="fill:none;stroke:black;" d="M602,-715C610,-785 626,-904 652,-1004 666,-1060 689,-1122 707,-1168"/>
<polygon style="fill:none;stroke:black;" points="605.478,-714.602 601,-705 598.512,-715.299 605.478,-714.602"/>
</g>
<!-- ApplicationController&#45;&gt;SourcesController -->
<g id="edge32" class="edge"><title>ApplicationController&#45;&gt;SourcesController</title>
<path style="fill:none;stroke:black;" d="M646,-600C679,-562 724,-513 759,-473"/>
<polygon style="fill:none;stroke:black;" points="642.951,-598.169 639,-608 648.219,-602.779 642.951,-598.169"/>
</g>
<!-- ApplicationController&#45;&gt;SentencesController -->
<g id="edge34" class="edge"><title>ApplicationController&#45;&gt;SentencesController</title>
<path style="fill:none;stroke:black;" d="M613,-598C635,-526 681,-404 754,-323 828,-241 942,-181 1014,-149"/>
<polygon style="fill:none;stroke:black;" points="609.521,-597.416 610,-608 616.226,-599.427 609.521,-597.416"/>
</g>
<!-- ApplicationController&#45;&gt;AnnotationsController -->
<g id="edge36" class="edge"><title>ApplicationController&#45;&gt;AnnotationsController</title>
<path style="fill:none;stroke:black;" d="M599,-715C601,-799 591,-953 506,-1041 465,-1083 433,-1053 379,-1075 308,-1104 232,-1147 177,-1180"/>
<polygon style="fill:none;stroke:black;" points="602.5,-715 599,-705 595.5,-715 602.5,-715"/>
</g>
<!-- ApplicationController&#45;&gt;SentenceDivisionsController -->
<g id="edge38" class="edge"><title>ApplicationController&#45;&gt;SentenceDivisionsController</title>
<path style="fill:none;stroke:black;" d="M514,-641C457,-633 380,-631 319,-659 236,-697 171,-783 133,-846"/>
<polygon style="fill:none;stroke:black;" points="513.701,-644.488 524,-642 514.398,-637.522 513.701,-644.488"/>
</g>
</g>
</svg>
