<?xml version="1.0" encoding="UTF-8" standalone="no"?>
<!DOCTYPE svg PUBLIC "-//W3C//DTD SVG 1.0//EN"
 "http://www.w3.org/TR/2001/REC-SVG-20010904/DTD/svg10.dtd" [
 <!ATTLIST svg xmlns:xlink CDATA #FIXED "http://www.w3.org/1999/xlink">
]>
<!-- Generated by Graphviz version 2.14.1 (Thu Jan 31 17:20:39 UTC 2008)
     For user: (mariuslj) Marius J|hndal -->
<!-- Title: models_diagram Pages: 1 -->
<svg width="1974pt" height="1160pt"
 viewBox="0.00 0.00 1974.00 1160.00" xmlns="http://www.w3.org/2000/svg" xmlns:xlink="http://www.w3.org/1999/xlink">
<g id="graph0" class="graph" transform="scale(1 1) rotate(0) translate(4 1156)">
<title>models_diagram</title>
<polygon style="fill:white;stroke:white;" points="-4,4 -4,-1156 1970,-1156 1970,4 -4,4"/>
<!-- _diagram_info -->
<g id="node1" class="node"><title>_diagram_info</title>
<text text-anchor="start" x="8" y="-1130" style="font-family:Times New Roman;font-size:11.00;">Diagram: Models</text>
<text text-anchor="start" x="8" y="-1113" style="font-family:Times New Roman;font-size:11.00;">Date: Apr 02 2008 &#45; 13:21</text>
<text text-anchor="start" x="8" y="-1096" style="font-family:Times New Roman;font-size:11.00;">Migration version: 44</text>
<text text-anchor="start" x="8" y="-1079" style="font-family:Times New Roman;font-size:11.00;">Generated by RailRoad 0.4.0</text>
</g>
<!-- User -->
<g id="node2" class="node"><title>User</title>
<polyline style="fill:none;stroke:black;" points="164,-776 375,-776 "/>
<path style="fill:none;stroke:black;" d="M375,-776C381,-776 387,-782 387,-788"/>
<polyline style="fill:none;stroke:black;" points="387,-788 387,-1018 "/>
<path style="fill:none;stroke:black;" d="M387,-1018C387,-1024 381,-1030 375,-1030"/>
<polyline style="fill:none;stroke:black;" points="375,-1030 164,-1030 "/>
<path style="fill:none;stroke:black;" d="M164,-1030C158,-1030 152,-1024 152,-1018"/>
<polyline style="fill:none;stroke:black;" points="152,-1018 152,-788 "/>
<path style="fill:none;stroke:black;" d="M152,-788C152,-782 158,-776 164,-776"/>
<text text-anchor="middle" x="269" y="-1012" style="font-family:Times New Roman;font-size:11.00;">User</text>
<polyline style="fill:none;stroke:black;" points="152,-1005 387,-1005 "/>
<text text-anchor="start" x="160" y="-987" style="font-family:Times New Roman;font-size:11.00;">login :string</text>
<text text-anchor="start" x="160" y="-970" style="font-family:Times New Roman;font-size:11.00;">email :string</text>
<text text-anchor="start" x="160" y="-953" style="font-family:Times New Roman;font-size:11.00;">crypted_password :string</text>
<text text-anchor="start" x="160" y="-936" style="font-family:Times New Roman;font-size:11.00;">salt :string</text>
<text text-anchor="start" x="160" y="-919" style="font-family:Times New Roman;font-size:11.00;">created_at :datetime</text>
<text text-anchor="start" x="160" y="-902" style="font-family:Times New Roman;font-size:11.00;">updated_at :datetime</text>
<text text-anchor="start" x="160" y="-885" style="font-family:Times New Roman;font-size:11.00;">remember_token :string</text>
<text text-anchor="start" x="160" y="-868" style="font-family:Times New Roman;font-size:11.00;">remember_token_expires_at :datetime</text>
<text text-anchor="start" x="160" y="-851" style="font-family:Times New Roman;font-size:11.00;">activation_code :string</text>
<text text-anchor="start" x="160" y="-834" style="font-family:Times New Roman;font-size:11.00;">activated_at :datetime</text>
<text text-anchor="start" x="160" y="-817" style="font-family:Times New Roman;font-size:11.00;">last_name :string</text>
<text text-anchor="start" x="160" y="-800" style="font-family:Times New Roman;font-size:11.00;">first_name :string</text>
<text text-anchor="start" x="160" y="-783" style="font-family:Times New Roman;font-size:11.00;">preferences :string</text>
</g>
<!-- Token -->
<g id="node4" class="node"><title>Token</title>
<polyline style="fill:none;stroke:black;" points="598,-244 766,-244 "/>
<path style="fill:none;stroke:black;" d="M766,-244C772,-244 778,-250 778,-256"/>
<polyline style="fill:none;stroke:black;" points="778,-256 778,-469 "/>
<path style="fill:none;stroke:black;" d="M778,-469C778,-475 772,-481 766,-481"/>
<polyline style="fill:none;stroke:black;" points="766,-481 598,-481 "/>
<path style="fill:none;stroke:black;" d="M598,-481C592,-481 586,-475 586,-469"/>
<polyline style="fill:none;stroke:black;" points="586,-469 586,-256 "/>
<path style="fill:none;stroke:black;" d="M586,-256C586,-250 592,-244 598,-244"/>
<text text-anchor="middle" x="682" y="-463" style="font-family:Times New Roman;font-size:11.00;">Token</text>
<polyline style="fill:none;stroke:black;" points="586,-456 778,-456 "/>
<text text-anchor="start" x="594" y="-438" style="font-family:Times New Roman;font-size:11.00;">verse :integer</text>
<text text-anchor="start" x="594" y="-421" style="font-family:Times New Roman;font-size:11.00;">token_number :integer</text>
<text text-anchor="start" x="594" y="-404" style="font-family:Times New Roman;font-size:11.00;">morphtag :string</text>
<text text-anchor="start" x="594" y="-387" style="font-family:Times New Roman;font-size:11.00;">form :string</text>
<text text-anchor="start" x="594" y="-370" style="font-family:Times New Roman;font-size:11.00;">relation :string</text>
<text text-anchor="start" x="594" y="-353" style="font-family:Times New Roman;font-size:11.00;">morphtag_source :enum</text>
<text text-anchor="start" x="594" y="-336" style="font-family:Times New Roman;font-size:11.00;">composed_form :string</text>
<text text-anchor="start" x="594" y="-319" style="font-family:Times New Roman;font-size:11.00;">sort :enum</text>
<text text-anchor="start" x="594" y="-302" style="font-family:Times New Roman;font-size:11.00;">created_at :datetime</text>
<text text-anchor="start" x="594" y="-285" style="font-family:Times New Roman;font-size:11.00;">updated_at :datetime</text>
<text text-anchor="start" x="594" y="-268" style="font-family:Times New Roman;font-size:11.00;">morphtag_performance :enum</text>
<text text-anchor="start" x="594" y="-251" style="font-family:Times New Roman;font-size:11.00;">source_morphtag :string</text>
</g>
<!-- User&#45;&gt;Token -->
<g id="edge2" class="edge"><title>User&#45;&gt;Token</title>
<path style="fill:none;stroke:black;" d="M222,-776C202,-700 194,-605 241,-536 261,-507 452,-439 576,-397"/>
<polygon style="fill:black;stroke:black;" points="577.427,-400.226 586,-394 575.416,-393.521 577.427,-400.226"/>
<text text-anchor="middle" x="289" y="-624" style="font-family:Times New Roman;font-size:11.00;">reviewed_tokens</text>
<text text-anchor="middle" x="216" y="-763" style="font-family:Times New Roman;font-size:11.00;">n</text>
</g>
<!-- User&#45;&gt;Token -->
<g id="edge12" class="edge"><title>User&#45;&gt;Token</title>
<path style="fill:none;stroke:black;" d="M254,-776C257,-763 262,-751 270,-740 289,-715 315,-742 337,-722 403,-662 351,-604 406,-536 452,-480 520,-438 577,-408"/>
<polygon style="fill:black;stroke:black;" points="578.958,-410.916 586,-403 575.559,-404.797 578.958,-410.916"/>
<text text-anchor="middle" x="457" y="-624" style="font-family:Times New Roman;font-size:11.00;">annotated_tokens</text>
<text text-anchor="middle" x="252" y="-761" style="font-family:Times New Roman;font-size:11.00;">n</text>
</g>
<!-- Sentence -->
<g id="node6" class="node"><title>Sentence</title>
<polyline style="fill:none;stroke:black;" points="529,-536 693,-536 "/>
<path style="fill:none;stroke:black;" d="M693,-536C699,-536 705,-542 705,-548"/>
<polyline style="fill:none;stroke:black;" points="705,-548 705,-710 "/>
<path style="fill:none;stroke:black;" d="M705,-710C705,-716 699,-722 693,-722"/>
<polyline style="fill:none;stroke:black;" points="693,-722 529,-722 "/>
<path style="fill:none;stroke:black;" d="M529,-722C523,-722 517,-716 517,-710"/>
<polyline style="fill:none;stroke:black;" points="517,-710 517,-548 "/>
<path style="fill:none;stroke:black;" d="M517,-548C517,-542 523,-536 529,-536"/>
<text text-anchor="middle" x="611" y="-704" style="font-family:Times New Roman;font-size:11.00;">Sentence</text>
<polyline style="fill:none;stroke:black;" points="517,-697 705,-697 "/>
<text text-anchor="start" x="525" y="-679" style="font-family:Times New Roman;font-size:11.00;">chapter :integer</text>
<text text-anchor="start" x="525" y="-662" style="font-family:Times New Roman;font-size:11.00;">sentence_number :integer</text>
<text text-anchor="start" x="525" y="-645" style="font-family:Times New Roman;font-size:11.00;">bad_alignment_flag :boolean</text>
<text text-anchor="start" x="525" y="-628" style="font-family:Times New Roman;font-size:11.00;">created_at :datetime</text>
<text text-anchor="start" x="525" y="-611" style="font-family:Times New Roman;font-size:11.00;">updated_at :datetime</text>
<text text-anchor="start" x="525" y="-594" style="font-family:Times New Roman;font-size:11.00;">annotated_by :integer</text>
<text text-anchor="start" x="525" y="-577" style="font-family:Times New Roman;font-size:11.00;">annotated_at :datetime</text>
<text text-anchor="start" x="525" y="-560" style="font-family:Times New Roman;font-size:11.00;">reviewed_by :integer</text>
<text text-anchor="start" x="525" y="-543" style="font-family:Times New Roman;font-size:11.00;">reviewed_at :datetime</text>
</g>
<!-- User&#45;&gt;Sentence -->
<g id="edge4" class="edge"><title>User&#45;&gt;Sentence</title>
<path style="fill:none;stroke:black;" d="M265,-776C269,-762 276,-750 286,-740 315,-711 428,-735 465,-722 480,-717 494,-710 508,-703"/>
<polygon style="fill:black;stroke:black;" points="509.958,-705.916 517,-698 506.559,-699.797 509.958,-705.916"/>
<text text-anchor="middle" x="345" y="-744" style="font-family:Times New Roman;font-size:11.00;">annotated_sentences</text>
<text text-anchor="middle" x="264" y="-761" style="font-family:Times New Roman;font-size:11.00;">n</text>
</g>
<!-- User&#45;&gt;Sentence -->
<g id="edge6" class="edge"><title>User&#45;&gt;Sentence</title>
<path style="fill:none;stroke:black;" d="M387,-807C414,-785 443,-761 470,-740 482,-730 496,-719 509,-709"/>
<polygon style="fill:black;stroke:black;" points="511.1,-711.8 517,-703 506.9,-706.2 511.1,-711.8"/>
<text text-anchor="middle" x="526" y="-744" style="font-family:Times New Roman;font-size:11.00;">reviewed_sentences</text>
<text text-anchor="middle" x="391" y="-793" style="font-family:Times New Roman;font-size:11.00;">n</text>
</g>
<!-- Bookmark -->
<g id="node12" class="node"><title>Bookmark</title>
<polyline style="fill:none;stroke:black;" points="255,-338 313,-338 "/>
<path style="fill:none;stroke:black;" d="M313,-338C319,-338 325,-344 325,-350"/>
<polyline style="fill:none;stroke:black;" points="325,-350 325,-376 "/>
<path style="fill:none;stroke:black;" d="M325,-376C325,-382 319,-388 313,-388"/>
<polyline style="fill:none;stroke:black;" points="313,-388 255,-388 "/>
<path style="fill:none;stroke:black;" d="M255,-388C249,-388 243,-382 243,-376"/>
<polyline style="fill:none;stroke:black;" points="243,-376 243,-350 "/>
<path style="fill:none;stroke:black;" d="M243,-350C243,-344 249,-338 255,-338"/>
<text text-anchor="middle" x="284" y="-370" style="font-family:Times New Roman;font-size:11.00;">Bookmark</text>
<polyline style="fill:none;stroke:black;" points="243,-363 325,-363 "/>
<text text-anchor="start" x="251" y="-345" style="font-family:Times New Roman;font-size:11.00;">flow :enum</text>
</g>
<!-- User&#45;&gt;Bookmark -->
<g id="edge8" class="edge"><title>User&#45;&gt;Bookmark</title>
<path style="fill:none;stroke:black;" d="M219,-776C217,-770 215,-764 213,-758 185,-663 185,-632 205,-536 216,-485 244,-431 263,-397"/>
<polygon style="fill:black;stroke:black;" points="266.203,-398.441 268,-388 260.084,-395.042 266.203,-398.441"/>
<text text-anchor="middle" x="212" y="-764" style="font-family:Times New Roman;font-size:11.00;">n</text>
</g>
<!-- Changeset -->
<g id="node15" class="node"><title>Changeset</title>
<polyline style="fill:none;stroke:black;" points="1115,-595 1226,-595 "/>
<path style="fill:none;stroke:black;" d="M1226,-595C1232,-595 1238,-601 1238,-607"/>
<polyline style="fill:none;stroke:black;" points="1238,-607 1238,-650 "/>
<path style="fill:none;stroke:black;" d="M1238,-650C1238,-656 1232,-662 1226,-662"/>
<polyline style="fill:none;stroke:black;" points="1226,-662 1115,-662 "/>
<path style="fill:none;stroke:black;" d="M1115,-662C1109,-662 1103,-656 1103,-650"/>
<polyline style="fill:none;stroke:black;" points="1103,-650 1103,-607 "/>
<path style="fill:none;stroke:black;" d="M1103,-607C1103,-601 1109,-595 1115,-595"/>
<text text-anchor="middle" x="1170" y="-644" style="font-family:Times New Roman;font-size:11.00;">Changeset</text>
<polyline style="fill:none;stroke:black;" points="1103,-637 1238,-637 "/>
<text text-anchor="start" x="1111" y="-619" style="font-family:Times New Roman;font-size:11.00;">created_at :datetime</text>
<text text-anchor="start" x="1111" y="-602" style="font-family:Times New Roman;font-size:11.00;">changer_type :string</text>
</g>
<!-- User&#45;&gt;Changeset -->
<g id="edge10" class="edge"><title>User&#45;&gt;Changeset</title>
<path style="fill:none;stroke:black;" d="M387,-817C416,-801 448,-785 479,-776 596,-741 913,-803 1025,-758 1071,-740 1112,-700 1138,-670"/>
<polygon style="fill:black;stroke:black;" points="1141.05,-671.831 1145,-662 1135.78,-667.221 1141.05,-671.831"/>
<text text-anchor="middle" x="393" y="-804" style="font-family:Times New Roman;font-size:11.00;">n</text>
</g>
<!-- Source -->
<g id="node3" class="node"><title>Source</title>
<polyline style="fill:none;stroke:black;" points="686,-818 793,-818 "/>
<path style="fill:none;stroke:black;" d="M793,-818C799,-818 805,-824 805,-830"/>
<polyline style="fill:none;stroke:black;" points="805,-830 805,-975 "/>
<path style="fill:none;stroke:black;" d="M805,-975C805,-981 799,-987 793,-987"/>
<polyline style="fill:none;stroke:black;" points="793,-987 686,-987 "/>
<path style="fill:none;stroke:black;" d="M686,-987C680,-987 674,-981 674,-975"/>
<polyline style="fill:none;stroke:black;" points="674,-975 674,-830 "/>
<path style="fill:none;stroke:black;" d="M674,-830C674,-824 680,-818 686,-818"/>
<text text-anchor="middle" x="739" y="-969" style="font-family:Times New Roman;font-size:11.00;">Source</text>
<polyline style="fill:none;stroke:black;" points="674,-962 805,-962 "/>
<text text-anchor="start" x="682" y="-944" style="font-family:Times New Roman;font-size:11.00;">code :string</text>
<text text-anchor="start" x="682" y="-927" style="font-family:Times New Roman;font-size:11.00;">title :text</text>
<text text-anchor="start" x="682" y="-910" style="font-family:Times New Roman;font-size:11.00;">language :string</text>
<text text-anchor="start" x="682" y="-893" style="font-family:Times New Roman;font-size:11.00;">edition :text</text>
<text text-anchor="start" x="682" y="-876" style="font-family:Times New Roman;font-size:11.00;">source :text</text>
<text text-anchor="start" x="682" y="-859" style="font-family:Times New Roman;font-size:11.00;">editor :text</text>
<text text-anchor="start" x="682" y="-842" style="font-family:Times New Roman;font-size:11.00;">url :text</text>
<text text-anchor="start" x="682" y="-825" style="font-family:Times New Roman;font-size:11.00;">abbreviation :string</text>
</g>
<!-- Source&#45;&gt;Token -->
<g id="edge24" class="edge"><title>Source&#45;&gt;Token</title>
<path style="fill:none;stroke:black;" d="M805,-881C867,-857 960,-816 1025,-758 1100,-692 1103,-619 1049,-536 1019,-489 885,-434 788,-398"/>
<polygon style="fill:black;stroke:black;" points="788.584,-394.521 778,-395 786.573,-401.226 788.584,-394.521"/>
<text text-anchor="middle" x="812" y="-869" style="font-family:Times New Roman;font-size:11.00;">n</text>
</g>
<!-- Source&#45;&gt;Sentence -->
<g id="edge14" class="edge"><title>Source&#45;&gt;Sentence</title>
<path style="fill:none;stroke:black;" d="M674,-834C649,-805 624,-775 617,-758 614,-750 612,-741 610,-732"/>
<polygon style="fill:black;stroke:black;" points="613.393,-731.119 608,-722 606.529,-732.492 613.393,-731.119"/>
<text text-anchor="middle" x="665" y="-825" style="font-family:Times New Roman;font-size:11.00;">n</text>
</g>
<!-- Source&#45;&gt;Sentence -->
<g id="edge16" class="edge"><title>Source&#45;&gt;Sentence</title>
<path style="fill:none;stroke:black;" d="M674,-822C660,-802 647,-780 637,-758 633,-750 630,-741 628,-732"/>
<polygon style="fill:black;stroke:black;" points="631.226,-730.573 625,-722 624.521,-732.584 631.226,-730.573"/>
<text text-anchor="middle" x="696" y="-744" style="font-family:Times New Roman;font-size:11.00;">annotated_sentences</text>
<text text-anchor="middle" x="665" y="-812" style="font-family:Times New Roman;font-size:11.00;">n</text>
</g>
<!-- Source&#45;&gt;Sentence -->
<g id="edge18" class="edge"><title>Source&#45;&gt;Sentence</title>
<path style="fill:none;stroke:black;" d="M765,-818C768,-792 767,-764 755,-740 745,-720 730,-702 713,-688"/>
<polygon style="fill:black;stroke:black;" points="714.831,-684.951 705,-681 710.221,-690.219 714.831,-684.951"/>
<text text-anchor="middle" x="829" y="-744" style="font-family:Times New Roman;font-size:11.00;">unannotated_sentences</text>
<text text-anchor="middle" x="762" y="-804" style="font-family:Times New Roman;font-size:11.00;">n</text>
</g>
<!-- Source&#45;&gt;Sentence -->
<g id="edge20" class="edge"><title>Source&#45;&gt;Sentence</title>
<path style="fill:none;stroke:black;" d="M805,-873C864,-842 935,-792 899,-740 878,-707 788,-677 715,-656"/>
<polygon style="fill:black;stroke:black;" points="715.584,-652.521 705,-653 713.573,-659.226 715.584,-652.521"/>
<text text-anchor="middle" x="965" y="-744" style="font-family:Times New Roman;font-size:11.00;">reviewed_sentences</text>
<text text-anchor="middle" x="811" y="-860" style="font-family:Times New Roman;font-size:11.00;">n</text>
</g>
<!-- Source&#45;&gt;Bookmark -->
<g id="edge22" class="edge"><title>Source&#45;&gt;Bookmark</title>
<path style="fill:none;stroke:black;" d="M674,-820C659,-805 643,-789 627,-776 602,-755 594,-753 564,-740 541,-729 526,-741 508,-722 453,-658 516,-609 475,-536 470,-526 375,-442 321,-395"/>
<polygon style="fill:black;stroke:black;" points="322.831,-391.951 313,-388 318.221,-397.219 322.831,-391.951"/>
<text text-anchor="middle" x="665" y="-812" style="font-family:Times New Roman;font-size:11.00;">n</text>
</g>
<!-- Token&#45;&gt;Token -->
<g id="edge30" class="edge"><title>Token&#45;&gt;Token</title>
<path style="fill:none;stroke:black;" d="M788,-369C793,-367 796,-366 796,-363 796,-360 793,-359 788,-357"/>
<polygon style="fill:black;stroke:black;" points="787.119,-365.607 778,-371 788.492,-372.471 787.119,-365.607"/>
<polygon style="fill:black;stroke:black;" points="788.492,-353.529 778,-355 787.119,-360.393 788.492,-353.529"/>
<text text-anchor="middle" x="820" y="-358" style="font-family:Times New Roman;font-size:11.00;">slashees</text>
<text text-anchor="middle" x="788" y="-348" style="font-family:Times New Roman;font-size:11.00;">n</text>
<text text-anchor="middle" x="786" y="-360" style="font-family:Times New Roman;font-size:11.00;">n</text>
</g>
<!-- Token&#45;&gt;Token -->
<g id="edge32" class="edge"><title>Token&#45;&gt;Token</title>
<path style="fill:none;stroke:black;" d="M788,-381C820,-380 844,-374 844,-363 844,-352 820,-346 788,-345"/>
<polygon style="fill:black;stroke:black;" points="788,-377.5 778,-381 788,-384.5 788,-377.5"/>
<polygon style="fill:black;stroke:black;" points="788,-341.5 778,-345 788,-348.5 788,-341.5"/>
<text text-anchor="middle" x="868" y="-358" style="font-family:Times New Roman;font-size:11.00;">slashers</text>
<text text-anchor="middle" x="787" y="-336" style="font-family:Times New Roman;font-size:11.00;">n</text>
<text text-anchor="middle" x="787" y="-372" style="font-family:Times New Roman;font-size:11.00;">n</text>
</g>
<!-- Token&#45;&gt;Token -->
<g id="edge36" class="edge"><title>Token&#45;&gt;Token</title>
<path style="fill:none;stroke:black;" d="M778,-389C834,-393 891,-384 891,-363 891,-343 841,-334 788,-336"/>
<polygon style="fill:black;stroke:black;" points="787.602,-332.522 778,-337 788.299,-339.488 787.602,-332.522"/>
<text text-anchor="middle" x="923" y="-358" style="font-family:Times New Roman;font-size:11.00;">dependents</text>
<text text-anchor="middle" x="787" y="-380" style="font-family:Times New Roman;font-size:11.00;">n</text>
</g>
<!-- Audit -->
<g id="node11" class="node"><title>Audit</title>
<polyline style="fill:none;stroke:black;" points="613,-0 731,-0 "/>
<path style="fill:none;stroke:black;" d="M731,-0C737,-0 743,-6 743,-12"/>
<polyline style="fill:none;stroke:black;" points="743,-12 743,-89 "/>
<path style="fill:none;stroke:black;" d="M743,-89C743,-95 737,-101 731,-101"/>
<polyline style="fill:none;stroke:black;" points="731,-101 613,-101 "/>
<path style="fill:none;stroke:black;" d="M613,-101C607,-101 601,-95 601,-89"/>
<polyline style="fill:none;stroke:black;" points="601,-89 601,-12 "/>
<path style="fill:none;stroke:black;" d="M601,-12C601,-6 607,-0 613,-0"/>
<text text-anchor="middle" x="672" y="-83" style="font-family:Times New Roman;font-size:11.00;">Audit</text>
<polyline style="fill:none;stroke:black;" points="601,-76 743,-76 "/>
<text text-anchor="start" x="609" y="-58" style="font-family:Times New Roman;font-size:11.00;">auditable_type :string</text>
<text text-anchor="start" x="609" y="-41" style="font-family:Times New Roman;font-size:11.00;">action :string</text>
<text text-anchor="start" x="609" y="-24" style="font-family:Times New Roman;font-size:11.00;">changes :text</text>
<text text-anchor="start" x="609" y="-7" style="font-family:Times New Roman;font-size:11.00;">version :integer</text>
</g>
<!-- Token&#45;&gt;Audit -->
<g id="edge34" class="edge"><title>Token&#45;&gt;Audit</title>
<path style="fill:none;stroke:black;" d="M671,-244C670,-226 669,-207 668,-190 668,-167 668,-162 668,-140 668,-130 669,-121 669,-111"/>
<polygon style="fill:black;stroke:black;" points="672.5,-111 669,-101 665.5,-111 672.5,-111"/>
<text text-anchor="middle" x="666" y="-230" style="font-family:Times New Roman;font-size:11.00;">n</text>
</g>
<!-- SlashEdge -->
<g id="node17" class="node"><title>SlashEdge</title>
<polyline style="fill:none;stroke:black;" points="689,-140 743,-140 "/>
<path style="fill:none;stroke:black;" d="M743,-140C749,-140 755,-146 755,-152"/>
<polyline style="fill:none;stroke:black;" points="755,-152 755,-177 "/>
<path style="fill:none;stroke:black;" d="M755,-177C755,-183 749,-189 743,-189"/>
<polyline style="fill:none;stroke:black;" points="743,-189 689,-189 "/>
<path style="fill:none;stroke:black;" d="M689,-189C683,-189 677,-183 677,-177"/>
<polyline style="fill:none;stroke:black;" points="677,-177 677,-152 "/>
<path style="fill:none;stroke:black;" d="M677,-152C677,-146 683,-140 689,-140"/>
<text text-anchor="middle" x="716" y="-171" style="font-family:Times New Roman;font-size:11.00;">SlashEdge</text>
<polyline style="fill:none;stroke:black;" points="677,-164 755,-164 "/>
</g>
<!-- Token&#45;&gt;SlashEdge -->
<g id="edge26" class="edge"><title>Token&#45;&gt;SlashEdge</title>
<path style="fill:none;stroke:black;" d="M675,-244C677,-232 679,-219 683,-208 684,-204 686,-201 688,-198"/>
<polygon style="fill:black;stroke:black;" points="691.203,-199.441 693,-189 685.084,-196.042 691.203,-199.441"/>
<text text-anchor="middle" x="731" y="-212" style="font-family:Times New Roman;font-size:11.00;">slash_out_edges</text>
<text text-anchor="middle" x="672" y="-229" style="font-family:Times New Roman;font-size:11.00;">n</text>
</g>
<!-- Token&#45;&gt;SlashEdge -->
<g id="edge28" class="edge"><title>Token&#45;&gt;SlashEdge</title>
<path style="fill:none;stroke:black;" d="M772,-244C775,-238 777,-232 779,-226 782,-218 783,-215 779,-208 775,-201 770,-194 764,-189"/>
<polygon style="fill:black;stroke:black;" points="765.262,-185.635 755,-183 761.379,-191.459 765.262,-185.635"/>
<text text-anchor="middle" x="827" y="-212" style="font-family:Times New Roman;font-size:11.00;">slash_in_edges</text>
<text text-anchor="middle" x="772" y="-229" style="font-family:Times New Roman;font-size:11.00;">n</text>
</g>
<!-- Role -->
<g id="node5" class="node"><title>Role</title>
<polyline style="fill:none;stroke:black;" points="220,-1076 318,-1076 "/>
<path style="fill:none;stroke:black;" d="M318,-1076C324,-1076 330,-1082 330,-1088"/>
<polyline style="fill:none;stroke:black;" points="330,-1088 330,-1131 "/>
<path style="fill:none;stroke:black;" d="M330,-1131C330,-1137 324,-1143 318,-1143"/>
<polyline style="fill:none;stroke:black;" points="318,-1143 220,-1143 "/>
<path style="fill:none;stroke:black;" d="M220,-1143C214,-1143 208,-1137 208,-1131"/>
<polyline style="fill:none;stroke:black;" points="208,-1131 208,-1088 "/>
<path style="fill:none;stroke:black;" d="M208,-1088C208,-1082 214,-1076 220,-1076"/>
<text text-anchor="middle" x="269" y="-1125" style="font-family:Times New Roman;font-size:11.00;">Role</text>
<polyline style="fill:none;stroke:black;" points="208,-1118 330,-1118 "/>
<text text-anchor="start" x="216" y="-1100" style="font-family:Times New Roman;font-size:11.00;">code :string</text>
<text text-anchor="start" x="216" y="-1083" style="font-family:Times New Roman;font-size:11.00;">description :string</text>
</g>
<!-- Role&#45;&gt;User -->
<g id="edge38" class="edge"><title>Role&#45;&gt;User</title>
<path style="fill:none;stroke:black;" d="M269,-1076C269,-1066 269,-1053 269,-1040"/>
<polygon style="fill:black;stroke:black;" points="272.5,-1040 269,-1030 265.5,-1040 272.5,-1040"/>
<text text-anchor="middle" x="265" y="-1062" style="font-family:Times New Roman;font-size:11.00;">n</text>
</g>
<!-- Sentence&#45;&gt;Token -->
<g id="edge40" class="edge"><title>Sentence&#45;&gt;Token</title>
<path style="fill:none;stroke:black;" d="M609,-536C610,-524 611,-511 614,-500 615,-497 616,-494 617,-491"/>
<polygon style="fill:black;stroke:black;" points="620.479,-491.584 620,-481 613.774,-489.573 620.479,-491.584"/>
<text text-anchor="middle" x="665" y="-504" style="font-family:Times New Roman;font-size:11.00;">nonempty_tokens</text>
<text text-anchor="middle" x="606" y="-522" style="font-family:Times New Roman;font-size:11.00;">n</text>
</g>
<!-- Sentence&#45;&gt;Token -->
<g id="edge48" class="edge"><title>Sentence&#45;&gt;Token</title>
<path style="fill:none;stroke:black;" d="M705,-539C709,-533 713,-525 716,-518 720,-509 722,-500 723,-491"/>
<polygon style="fill:black;stroke:black;" points="726.5,-491 723,-481 719.5,-491 726.5,-491"/>
<text text-anchor="middle" x="779" y="-504" style="font-family:Times New Roman;font-size:11.00;">dependency_tokens</text>
<text text-anchor="middle" x="706" y="-524" style="font-family:Times New Roman;font-size:11.00;">n</text>
</g>
<!-- Sentence&#45;&gt;Token -->
<g id="edge50" class="edge"><title>Sentence&#45;&gt;Token</title>
<path style="fill:none;stroke:black;" d="M705,-608C754,-592 809,-565 838,-518 862,-479 829,-442 787,-414"/>
<polygon style="fill:black;stroke:black;" points="788.441,-410.797 778,-409 785.042,-416.916 788.441,-410.797"/>
<text text-anchor="middle" x="885" y="-504" style="font-family:Times New Roman;font-size:11.00;">word_tokens</text>
<text text-anchor="middle" x="712" y="-596" style="font-family:Times New Roman;font-size:11.00;">n</text>
</g>
<!-- Sentence&#45;&gt;Token -->
<g id="edge52" class="edge"><title>Sentence&#45;&gt;Token</title>
<path style="fill:none;stroke:black;" d="M603,-536C604,-524 605,-511 608,-500 609,-497 610,-494 611,-491"/>
<polygon style="fill:black;stroke:black;" points="614.479,-491.584 614,-481 607.774,-489.573 614.479,-491.584"/>
<text text-anchor="middle" x="600" y="-522" style="font-family:Times New Roman;font-size:11.00;">n</text>
</g>
<!-- Sentence&#45;&gt;Sentence -->
<g id="edge42" class="edge"><title>Sentence&#45;&gt;Sentence</title>
<path style="fill:none;stroke:black;" d="M714,-644C720,-640 723,-635 723,-629 723,-623 720,-618 714,-614"/>
<polygon style="fill:black;stroke:black;" points="712.717,-640.74 705,-648 715.56,-647.137 712.717,-640.74"/>
<polygon style="fill:black;stroke:black;" points="715.56,-610.863 705,-610 712.717,-617.26 715.56,-610.863"/>
<text text-anchor="middle" x="761" y="-624" style="font-family:Times New Roman;font-size:11.00;">aligned_with</text>
<text text-anchor="middle" x="715" y="-605" style="font-family:Times New Roman;font-size:11.00;">n</text>
<text text-anchor="middle" x="712" y="-635" style="font-family:Times New Roman;font-size:11.00;">n</text>
</g>
<!-- Sentence&#45;&gt;Audit -->
<g id="edge46" class="edge"><title>Sentence&#45;&gt;Audit</title>
<path style="fill:none;stroke:black;" d="M587,-536C570,-457 555,-342 577,-244 588,-196 613,-147 634,-110"/>
<polygon style="fill:black;stroke:black;" points="637.203,-111.441 639,-101 631.084,-108.042 637.203,-111.441"/>
<text text-anchor="middle" x="581" y="-523" style="font-family:Times New Roman;font-size:11.00;">n</text>
</g>
<!-- Sentence&#45;&gt;Bookmark -->
<g id="edge44" class="edge"><title>Sentence&#45;&gt;Bookmark</title>
<path style="fill:none;stroke:black;" d="M517,-548C512,-544 508,-540 503,-536 442,-485 369,-428 325,-394"/>
<polygon style="fill:black;stroke:black;" points="327.1,-391.2 317,-388 322.9,-396.8 327.1,-391.2"/>
<text text-anchor="middle" x="507" y="-541" style="font-family:Times New Roman;font-size:11.00;">n</text>
</g>
<!-- UserObserver -->
<g id="node7" class="node"><title>UserObserver</title>
<polygon style="fill:none;stroke:black;" points="1383,-878 1383,-928 1479,-928 1479,-878 1383,-878"/>
<text text-anchor="middle" x="1431" y="-910" style="font-family:Times New Roman;font-size:11.00;">UserObserver</text>
<polyline style="fill:none;stroke:black;" points="1383,-903 1479,-903 "/>
<text text-anchor="middle" x="1431" y="-885" style="font-family:Times New Roman;font-size:11.00;"> </text>
</g>
<!-- UserMailer -->
<g id="node8" class="node"><title>UserMailer</title>
<polygon style="fill:none;stroke:black;" points="1643,-878 1643,-928 1725,-928 1725,-878 1643,-878"/>
<text text-anchor="middle" x="1684" y="-910" style="font-family:Times New Roman;font-size:11.00;">UserMailer</text>
<polyline style="fill:none;stroke:black;" points="1643,-903 1725,-903 "/>
<text text-anchor="middle" x="1684" y="-885" style="font-family:Times New Roman;font-size:11.00;"> </text>
</g>
<!-- Book -->
<g id="node9" class="node"><title>Book</title>
<polyline style="fill:none;stroke:black;" points="500,-861 607,-861 "/>
<path style="fill:none;stroke:black;" d="M607,-861C613,-861 619,-867 619,-873"/>
<polyline style="fill:none;stroke:black;" points="619,-873 619,-933 "/>
<path style="fill:none;stroke:black;" d="M619,-933C619,-939 613,-945 607,-945"/>
<polyline style="fill:none;stroke:black;" points="607,-945 500,-945 "/>
<path style="fill:none;stroke:black;" d="M500,-945C494,-945 488,-939 488,-933"/>
<polyline style="fill:none;stroke:black;" points="488,-933 488,-873 "/>
<path style="fill:none;stroke:black;" d="M488,-873C488,-867 494,-861 500,-861"/>
<text text-anchor="middle" x="553" y="-927" style="font-family:Times New Roman;font-size:11.00;">Book</text>
<polyline style="fill:none;stroke:black;" points="488,-920 619,-920 "/>
<text text-anchor="start" x="496" y="-902" style="font-family:Times New Roman;font-size:11.00;">title :string</text>
<text text-anchor="start" x="496" y="-885" style="font-family:Times New Roman;font-size:11.00;">abbreviation :string</text>
<text text-anchor="start" x="496" y="-868" style="font-family:Times New Roman;font-size:11.00;">code :string</text>
</g>
<!-- Book&#45;&gt;Sentence -->
<g id="edge58" class="edge"><title>Book&#45;&gt;Sentence</title>
<path style="fill:none;stroke:black;" d="M562,-861C569,-827 579,-777 589,-732"/>
<polygon style="fill:black;stroke:black;" points="592.471,-732.492 591,-722 585.607,-731.119 592.471,-732.492"/>
<text text-anchor="middle" x="560" y="-846" style="font-family:Times New Roman;font-size:11.00;">n</text>
</g>
<!-- Lemma -->
<g id="node10" class="node"><title>Lemma</title>
<polyline style="fill:none;stroke:black;" points="908,-553 1028,-553 "/>
<path style="fill:none;stroke:black;" d="M1028,-553C1034,-553 1040,-559 1040,-565"/>
<polyline style="fill:none;stroke:black;" points="1040,-565 1040,-693 "/>
<path style="fill:none;stroke:black;" d="M1040,-693C1040,-699 1034,-705 1028,-705"/>
<polyline style="fill:none;stroke:black;" points="1028,-705 908,-705 "/>
<path style="fill:none;stroke:black;" d="M908,-705C902,-705 896,-699 896,-693"/>
<polyline style="fill:none;stroke:black;" points="896,-693 896,-565 "/>
<path style="fill:none;stroke:black;" d="M896,-565C896,-559 902,-553 908,-553"/>
<text text-anchor="middle" x="968" y="-687" style="font-family:Times New Roman;font-size:11.00;">Lemma</text>
<polyline style="fill:none;stroke:black;" points="896,-680 1040,-680 "/>
<text text-anchor="start" x="904" y="-662" style="font-family:Times New Roman;font-size:11.00;">lemma :string</text>
<text text-anchor="start" x="904" y="-645" style="font-family:Times New Roman;font-size:11.00;">variant :string</text>
<text text-anchor="start" x="904" y="-628" style="font-family:Times New Roman;font-size:11.00;">language :string</text>
<text text-anchor="start" x="904" y="-611" style="font-family:Times New Roman;font-size:11.00;">created_at :datetime</text>
<text text-anchor="start" x="904" y="-594" style="font-family:Times New Roman;font-size:11.00;">updated_at :datetime</text>
<text text-anchor="start" x="904" y="-577" style="font-family:Times New Roman;font-size:11.00;">pos :string</text>
<text text-anchor="start" x="904" y="-560" style="font-family:Times New Roman;font-size:11.00;">pos_inferred :boolean</text>
</g>
<!-- Lemma&#45;&gt;Token -->
<g id="edge62" class="edge"><title>Lemma&#45;&gt;Token</title>
<path style="fill:none;stroke:black;" d="M954,-553C948,-534 939,-515 926,-500 890,-456 836,-423 787,-401"/>
<polygon style="fill:black;stroke:black;" points="788.56,-397.863 778,-397 785.717,-404.26 788.56,-397.863"/>
<text text-anchor="middle" x="947" y="-541" style="font-family:Times New Roman;font-size:11.00;">n</text>
</g>
<!-- DictionaryReference -->
<g id="node19" class="node"><title>DictionaryReference</title>
<polyline style="fill:none;stroke:black;" points="1022,-312 1174,-312 "/>
<path style="fill:none;stroke:black;" d="M1174,-312C1180,-312 1186,-318 1186,-324"/>
<polyline style="fill:none;stroke:black;" points="1186,-324 1186,-401 "/>
<path style="fill:none;stroke:black;" d="M1186,-401C1186,-407 1180,-413 1174,-413"/>
<polyline style="fill:none;stroke:black;" points="1174,-413 1022,-413 "/>
<path style="fill:none;stroke:black;" d="M1022,-413C1016,-413 1010,-407 1010,-401"/>
<polyline style="fill:none;stroke:black;" points="1010,-401 1010,-324 "/>
<path style="fill:none;stroke:black;" d="M1010,-324C1010,-318 1016,-312 1022,-312"/>
<text text-anchor="middle" x="1098" y="-395" style="font-family:Times New Roman;font-size:11.00;">DictionaryReference</text>
<polyline style="fill:none;stroke:black;" points="1010,-388 1186,-388 "/>
<text text-anchor="start" x="1018" y="-370" style="font-family:Times New Roman;font-size:11.00;">dictionary_identifier :string</text>
<text text-anchor="start" x="1018" y="-353" style="font-family:Times New Roman;font-size:11.00;">entry_identifier :string</text>
<text text-anchor="start" x="1018" y="-336" style="font-family:Times New Roman;font-size:11.00;">created_at :datetime</text>
<text text-anchor="start" x="1018" y="-319" style="font-family:Times New Roman;font-size:11.00;">updated_at :datetime</text>
</g>
<!-- Lemma&#45;&gt;DictionaryReference -->
<g id="edge60" class="edge"><title>Lemma&#45;&gt;DictionaryReference</title>
<path style="fill:none;stroke:black;" d="M1005,-553C1025,-511 1050,-460 1069,-422"/>
<polygon style="fill:black;stroke:black;" points="1072.2,-423.441 1074,-413 1066.08,-420.042 1072.2,-423.441"/>
<text text-anchor="middle" x="1005" y="-538" style="font-family:Times New Roman;font-size:11.00;">n</text>
</g>
<!-- SentenceAlignment -->
<g id="node13" class="node"><title>SentenceAlignment</title>
<polyline style="fill:none;stroke:black;" points="1842,-1068 1954,-1068 "/>
<path style="fill:none;stroke:black;" d="M1954,-1068C1960,-1068 1966,-1074 1966,-1080"/>
<polyline style="fill:none;stroke:black;" points="1966,-1080 1966,-1140 "/>
<path style="fill:none;stroke:black;" d="M1966,-1140C1966,-1146 1960,-1152 1954,-1152"/>
<polyline style="fill:none;stroke:black;" points="1954,-1152 1842,-1152 "/>
<path style="fill:none;stroke:black;" d="M1842,-1152C1836,-1152 1830,-1146 1830,-1140"/>
<polyline style="fill:none;stroke:black;" points="1830,-1140 1830,-1080 "/>
<path style="fill:none;stroke:black;" d="M1830,-1080C1830,-1074 1836,-1068 1842,-1068"/>
<text text-anchor="middle" x="1898" y="-1134" style="font-family:Times New Roman;font-size:11.00;">SentenceAlignment</text>
<polyline style="fill:none;stroke:black;" points="1830,-1127 1966,-1127 "/>
<text text-anchor="start" x="1838" y="-1109" style="font-family:Times New Roman;font-size:11.00;">confidence :float</text>
<text text-anchor="start" x="1838" y="-1092" style="font-family:Times New Roman;font-size:11.00;">created_at :datetime</text>
<text text-anchor="start" x="1838" y="-1075" style="font-family:Times New Roman;font-size:11.00;">updated_at :datetime</text>
</g>
<!-- Job -->
<g id="node14" class="node"><title>Job</title>
<polyline style="fill:none;stroke:black;" points="1113,-810 1226,-810 "/>
<path style="fill:none;stroke:black;" d="M1226,-810C1232,-810 1238,-816 1238,-822"/>
<polyline style="fill:none;stroke:black;" points="1238,-822 1238,-984 "/>
<path style="fill:none;stroke:black;" d="M1238,-984C1238,-990 1232,-996 1226,-996"/>
<polyline style="fill:none;stroke:black;" points="1226,-996 1113,-996 "/>
<path style="fill:none;stroke:black;" d="M1113,-996C1107,-996 1101,-990 1101,-984"/>
<polyline style="fill:none;stroke:black;" points="1101,-984 1101,-822 "/>
<path style="fill:none;stroke:black;" d="M1101,-822C1101,-816 1107,-810 1113,-810"/>
<text text-anchor="middle" x="1169" y="-978" style="font-family:Times New Roman;font-size:11.00;">Job</text>
<polyline style="fill:none;stroke:black;" points="1101,-971 1238,-971 "/>
<text text-anchor="start" x="1109" y="-953" style="font-family:Times New Roman;font-size:11.00;">name :string</text>
<text text-anchor="start" x="1109" y="-936" style="font-family:Times New Roman;font-size:11.00;">parameters :text</text>
<text text-anchor="start" x="1109" y="-919" style="font-family:Times New Roman;font-size:11.00;">started_at :datetime</text>
<text text-anchor="start" x="1109" y="-902" style="font-family:Times New Roman;font-size:11.00;">finished_at :datetime</text>
<text text-anchor="start" x="1109" y="-885" style="font-family:Times New Roman;font-size:11.00;">result :enum</text>
<text text-anchor="start" x="1109" y="-868" style="font-family:Times New Roman;font-size:11.00;">created_at :datetime</text>
<text text-anchor="start" x="1109" y="-851" style="font-family:Times New Roman;font-size:11.00;">updated_at :datetime</text>
<text text-anchor="start" x="1109" y="-834" style="font-family:Times New Roman;font-size:11.00;">audited :boolean</text>
<text text-anchor="start" x="1109" y="-817" style="font-family:Times New Roman;font-size:11.00;">log :text</text>
</g>
<!-- Job&#45;&gt;Changeset -->
<g id="edge64" class="edge"><title>Job&#45;&gt;Changeset</title>
<path style="fill:none;stroke:black;" d="M1169,-810C1170,-763 1170,-709 1170,-672"/>
<polygon style="fill:black;stroke:black;" points="1173.5,-672 1170,-662 1166.5,-672 1173.5,-672"/>
<text text-anchor="middle" x="1165" y="-796" style="font-family:Times New Roman;font-size:11.00;">n</text>
</g>
<!-- Changeset&#45;&gt;Audit -->
<g id="edge66" class="edge"><title>Changeset&#45;&gt;Audit</title>
<path style="fill:none;stroke:black;" d="M1185,-595C1215,-523 1271,-352 1195,-244 1143,-169 887,-100 753,-69"/>
<polygon style="fill:black;stroke:black;" points="753.492,-65.5292 743,-67 752.119,-72.3933 753.492,-65.5292"/>
<text text-anchor="middle" x="1207" y="-212" style="font-family:Times New Roman;font-size:11.00;">changes</text>
<text text-anchor="middle" x="1184" y="-580" style="font-family:Times New Roman;font-size:11.00;">n</text>
</g>
<!-- Dictionary -->
<g id="node16" class="node"><title>Dictionary</title>
<polyline style="fill:none;stroke:black;" points="1267,-852 1353,-852 "/>
<path style="fill:none;stroke:black;" d="M1353,-852C1359,-852 1365,-858 1365,-864"/>
<polyline style="fill:none;stroke:black;" points="1365,-864 1365,-941 "/>
<path style="fill:none;stroke:black;" d="M1365,-941C1365,-947 1359,-953 1353,-953"/>
<polyline style="fill:none;stroke:black;" points="1353,-953 1267,-953 "/>
<path style="fill:none;stroke:black;" d="M1267,-953C1261,-953 1255,-947 1255,-941"/>
<polyline style="fill:none;stroke:black;" points="1255,-941 1255,-864 "/>
<path style="fill:none;stroke:black;" d="M1255,-864C1255,-858 1261,-852 1267,-852"/>
<text text-anchor="middle" x="1310" y="-935" style="font-family:Times New Roman;font-size:11.00;">Dictionary</text>
<polyline style="fill:none;stroke:black;" points="1255,-928 1365,-928 "/>
<text text-anchor="start" x="1263" y="-910" style="font-family:Times New Roman;font-size:11.00;">identifier :string</text>
<text text-anchor="start" x="1263" y="-893" style="font-family:Times New Roman;font-size:11.00;">title :string</text>
<text text-anchor="start" x="1263" y="-876" style="font-family:Times New Roman;font-size:11.00;">fulltitle :text</text>
<text text-anchor="start" x="1263" y="-859" style="font-family:Times New Roman;font-size:11.00;">source :text</text>
</g>
<!-- DictionaryEntry -->
<g id="node18" class="node"><title>DictionaryEntry</title>
<polyline style="fill:none;stroke:black;" points="1267,-595 1354,-595 "/>
<path style="fill:none;stroke:black;" d="M1354,-595C1360,-595 1366,-601 1366,-607"/>
<polyline style="fill:none;stroke:black;" points="1366,-607 1366,-650 "/>
<path style="fill:none;stroke:black;" d="M1366,-650C1366,-656 1360,-662 1354,-662"/>
<polyline style="fill:none;stroke:black;" points="1354,-662 1267,-662 "/>
<path style="fill:none;stroke:black;" d="M1267,-662C1261,-662 1255,-656 1255,-650"/>
<polyline style="fill:none;stroke:black;" points="1255,-650 1255,-607 "/>
<path style="fill:none;stroke:black;" d="M1255,-607C1255,-601 1261,-595 1267,-595"/>
<text text-anchor="middle" x="1310" y="-644" style="font-family:Times New Roman;font-size:11.00;">DictionaryEntry</text>
<polyline style="fill:none;stroke:black;" points="1255,-637 1366,-637 "/>
<text text-anchor="start" x="1263" y="-619" style="font-family:Times New Roman;font-size:11.00;">identifier :string</text>
<text text-anchor="start" x="1263" y="-602" style="font-family:Times New Roman;font-size:11.00;">data :text</text>
</g>
<!-- Dictionary&#45;&gt;DictionaryEntry -->
<g id="edge68" class="edge"><title>Dictionary&#45;&gt;DictionaryEntry</title>
<path style="fill:none;stroke:black;" d="M1310,-852C1310,-800 1310,-721 1310,-672"/>
<polygon style="fill:black;stroke:black;" points="1313.5,-672 1310,-662 1306.5,-672 1313.5,-672"/>
<text text-anchor="middle" x="1329" y="-744" style="font-family:Times New Roman;font-size:11.00;">entries</text>
<text text-anchor="middle" x="1306" y="-838" style="font-family:Times New Roman;font-size:11.00;">n</text>
</g>
<!-- SlashEdge&#45;&gt;Audit -->
<g id="edge70" class="edge"><title>SlashEdge&#45;&gt;Audit</title>
<path style="fill:none;stroke:black;" d="M706,-140C703,-131 699,-121 695,-111"/>
<polygon style="fill:black;stroke:black;" points="697.964,-108.985 691,-101 691.464,-111.585 697.964,-108.985"/>
<text text-anchor="middle" x="699" y="-128" style="font-family:Times New Roman;font-size:11.00;">n</text>
</g>
<!-- DictionaryEntry&#45;&gt;DictionaryReference -->
<g id="edge72" class="edge"><title>DictionaryEntry&#45;&gt;DictionaryReference</title>
<path style="fill:none;stroke:black;" d="M1288,-595C1276,-577 1261,-555 1246,-536 1216,-496 1180,-454 1151,-421"/>
<polygon style="fill:black;stroke:black;" points="1153.22,-418.221 1144,-413 1147.95,-422.831 1153.22,-418.221"/>
<text text-anchor="middle" x="1279" y="-585" style="font-family:Times New Roman;font-size:11.00;">n</text>
</g>
<!-- MorphtagMailer -->
<g id="node20" class="node"><title>MorphtagMailer</title>
<polygon style="fill:none;stroke:black;" points="1743,-878 1743,-928 1857,-928 1857,-878 1743,-878"/>
<text text-anchor="middle" x="1800" y="-910" style="font-family:Times New Roman;font-size:11.00;">MorphtagMailer</text>
<polyline style="fill:none;stroke:black;" points="1743,-903 1857,-903 "/>
<text text-anchor="middle" x="1800" y="-885" style="font-family:Times New Roman;font-size:11.00;"> </text>
</g>
<!-- MorphtagObserver -->
<g id="node21" class="node"><title>MorphtagObserver</title>
<polygon style="fill:none;stroke:black;" points="1497,-878 1497,-928 1625,-928 1625,-878 1497,-878"/>
<text text-anchor="middle" x="1561" y="-910" style="font-family:Times New Roman;font-size:11.00;">MorphtagObserver</text>
<polyline style="fill:none;stroke:black;" points="1497,-903 1625,-903 "/>
<text text-anchor="middle" x="1561" y="-885" style="font-family:Times New Roman;font-size:11.00;"> </text>
</g>
<!-- ActiveRecord::Observer -->
<g id="node48" class="node"><title>ActiveRecord::Observer</title>
<ellipse style="fill:none;stroke:black;" cx="1496" cy="-1110" rx="83.1777" ry="18"/>
<text text-anchor="middle" x="1496" y="-1105" style="font-family:Times New Roman;font-size:11.00;">ActiveRecord::Observer</text>
</g>
<!-- ActiveRecord::Observer&#45;&gt;UserObserver -->
<g id="edge54" class="edge"><title>ActiveRecord::Observer&#45;&gt;UserObserver</title>
<path style="fill:none;stroke:black;" d="M1487,-1082C1475,-1042 1451,-968 1439,-928"/>
<polygon style="fill:none;stroke:black;" points="1483.77,-1083.43 1490,-1092 1490.48,-1081.42 1483.77,-1083.43"/>
</g>
<!-- ActiveRecord::Observer&#45;&gt;MorphtagObserver -->
<g id="edge76" class="edge"><title>ActiveRecord::Observer&#45;&gt;MorphtagObserver</title>
<path style="fill:none;stroke:black;" d="M1505,-1082C1517,-1042 1541,-968 1553,-928"/>
<polygon style="fill:none;stroke:black;" points="1501.52,-1081.42 1502,-1092 1508.23,-1083.43 1501.52,-1081.42"/>
</g>
<!-- ActionMailer::Base -->
<g id="node50" class="node"><title>ActionMailer::Base</title>
<ellipse style="fill:none;stroke:black;" cx="1742" cy="-1110" rx="70.1764" ry="18"/>
<text text-anchor="middle" x="1742" y="-1105" style="font-family:Times New Roman;font-size:11.00;">ActionMailer::Base</text>
</g>
<!-- ActionMailer::Base&#45;&gt;UserMailer -->
<g id="edge56" class="edge"><title>ActionMailer::Base&#45;&gt;UserMailer</title>
<path style="fill:none;stroke:black;" d="M1734,-1082C1723,-1042 1702,-968 1691,-928"/>
<polygon style="fill:none;stroke:black;" points="1730.77,-1083.43 1737,-1092 1737.48,-1081.42 1730.77,-1083.43"/>
</g>
<!-- ActionMailer::Base&#45;&gt;MorphtagMailer -->
<g id="edge74" class="edge"><title>ActionMailer::Base&#45;&gt;MorphtagMailer</title>
<path style="fill:none;stroke:black;" d="M1750,-1082C1761,-1042 1782,-968 1793,-928"/>
<polygon style="fill:none;stroke:black;" points="1746.52,-1081.42 1747,-1092 1753.23,-1083.43 1746.52,-1081.42"/>
</g>
</g>
</svg>
